<?xml version="1.0" encoding="UTF-8" standalone="no"?>
<!DOCTYPE svg PUBLIC "-//W3C//DTD SVG 1.1//EN" "http://www.w3.org/Graphics/SVG/1.1/DTD/svg11.dtd">
<!-- Created with Vectornator (http://vectornator.io/) -->
<svg height="100%" stroke-miterlimit="10" style="fill-rule:nonzero;clip-rule:evenodd;stroke-linecap:round;stroke-linejoin:round;" version="1.1" viewBox="0 0 1280 720" width="100%" xml:space="preserve" xmlns="http://www.w3.org/2000/svg" xmlns:vectornator="http://vectornator.io" xmlns:xlink="http://www.w3.org/1999/xlink">
<defs>
<linearGradient gradientTransform="matrix(1 0 0 1 -0.879462 22.866)" gradientUnits="userSpaceOnUse" id="LinearGradient" x1="-1.14452" x2="1292.9" y1="142.454" y2="142.454">
<stop offset="0" stop-color="#702cc8"/>
<stop offset="1" stop-color="#3b58c8"/>
</linearGradient>
</defs>
<clipPath id="ArtboardFrame">
<rect height="720" width="1280" x="0" y="0"/>
</clipPath>
<g clip-path="url(#ArtboardFrame)" id="Layer-1" vectornator:layerName="Layer 1">
<path d="" fill="none" opacity="1" stroke="#e94420" stroke-linecap="butt" stroke-linejoin="round" stroke-width="18.2026"/>
<path d="" fill="none" opacity="1" stroke="#e94420" stroke-linecap="butt" stroke-linejoin="round" stroke-width="18.2026"/>
<path d="M0.614399 16.4504L1286.27 16.4504L1286.27 219.596C1286.27 219.596 1216.19 276.553 1082.54 278.755C1020.55 279.777 921.574 242.713 839.529 209.135C744.663 170.31 645.402 156.748 569.453 164.146C427.819 177.941 296.57 275.942 198.629 279.442C110.587 282.589 0.614399 219.596 0.614399 219.596L0.614399 16.4504Z" fill="#e1d2f4" fill-rule="nonzero" opacity="1" stroke="none"/>
<path d="M-2.02399-4.65673L1283.63-4.65673L1283.63 198.489C1283.63 198.489 1213.55 255.446 1079.9 257.648C1017.91 258.67 918.936 221.606 836.891 188.028C742.025 149.203 642.764 135.641 566.815 143.039C425.181 156.834 293.931 254.835 195.991 258.335C107.948 261.481-2.02399 198.489-2.02399 198.489L-2.02399-4.65673Z" fill="url(#LinearGradient)" fill-rule="nonzero" opacity="1" stroke="none"/>
</g>
</svg>
